<svg width="164" height="50" viewBox="0 0 164 50" fill="none" xmlns="http://www.w3.org/2000/svg">
<path d="M76.9 19.475V31.425C76.9 33.275 76.375 34.7 75.325 35.7C74.2917 36.7 72.8917 37.2 71.125 37.2C69.275 37.2 67.7917 36.675 66.675 35.625C65.5583 34.575 65 33.0833 65 31.15H69.25C69.25 31.8833 69.4 32.4417 69.7 32.825C70 33.1917 70.4333 33.375 71 33.375C71.5167 33.375 71.9167 33.2083 72.2 32.875C72.4833 32.5417 72.625 32.0583 72.625 31.425V19.475H76.9ZM89.2031 37.225C87.8365 37.225 86.6031 36.9333 85.5031 36.35C84.4198 35.7667 83.5615 34.9333 82.9281 33.85C82.3115 32.7667 82.0031 31.5 82.0031 30.05C82.0031 28.6167 82.3198 27.3583 82.9531 26.275C83.5865 25.175 84.4531 24.3333 85.5531 23.75C86.6531 23.1667 87.8865 22.875 89.2531 22.875C90.6198 22.875 91.8531 23.1667 92.9531 23.75C94.0531 24.3333 94.9198 25.175 95.5531 26.275C96.1865 27.3583 96.5031 28.6167 96.5031 30.05C96.5031 31.4833 96.1781 32.75 95.5281 33.85C94.8948 34.9333 94.0198 35.7667 92.9031 36.35C91.8031 36.9333 90.5698 37.225 89.2031 37.225ZM89.2031 33.525C90.0198 33.525 90.7115 33.225 91.2781 32.625C91.8615 32.025 92.1531 31.1667 92.1531 30.05C92.1531 28.9333 91.8698 28.075 91.3031 27.475C90.7531 26.875 90.0698 26.575 89.2531 26.575C88.4198 26.575 87.7281 26.875 87.1781 27.475C86.6281 28.0583 86.3531 28.9167 86.3531 30.05C86.3531 31.1667 86.6198 32.025 87.1531 32.625C87.7031 33.225 88.3865 33.525 89.2031 33.525ZM141.889 21.625C141.889 21.625 140.522 21.4083 140.039 20.975C139.572 20.525 139.339 19.975 139.339 19.325C139.339 18.6583 139.572 18.1083 140.039 17.675C140.522 17.225 141.139 17 141.889 17C142.622 17 143.689 17.675 143.689 17.675C143.689 17.675 144.414 18.6583 144.414 19.325C144.414 19.975 144.172 20.525 143.689 20.975C143.222 21.4083 142.622 21.625 141.889 21.625ZM144.014 23.075V37.025H139.739V23.075H144.014Z" fill="#2CB1BC"/>
<path d="M126.271 23.475C125.521 23.875 124.946 24.4 124.546 25.05V18.525H120.271V37.025H124.546V35.075C124.963 35.725 125.538 36.25 126.271 36.65C127.004 37.0333 127.863 37.225 128.846 37.225C129.996 37.225 131.038 36.9333 131.971 36.35C132.904 35.75 133.638 34.9083 134.171 33.825C134.721 32.725 134.996 31.4583 134.996 30.025C134.996 28.5917 134.721 27.3333 134.171 26.25C133.638 25.1667 132.904 24.3333 131.971 23.75C131.038 23.1667 129.996 22.875 128.846 22.875C127.879 22.875 127.021 23.075 126.271 23.475Z" fill="#2CB1BC"/>
<path d="M107.271 23.475C106.521 23.875 105.946 24.4 105.546 25.05V18.525H101.271V37.025H105.546V35.075C105.963 35.725 106.538 36.25 107.271 36.65C108.004 37.0333 108.863 37.225 109.846 37.225C110.996 37.225 112.038 36.9333 112.971 36.35C113.904 35.75 114.638 34.9083 115.171 33.825C115.721 32.725 115.996 31.4583 115.996 30.025C115.996 28.5917 115.721 27.3333 115.171 26.25C114.638 25.1667 113.904 24.3333 112.971 23.75C112.038 23.1667 110.996 22.875 109.846 22.875C108.879 22.875 108.021 23.075 107.271 23.475Z" fill="#2CB1BC"/>
<path d="M40 0H10C4.47715 0 0 4.47715 0 10V40C0 45.5228 4.47715 50 10 50H40C45.5228 50 50 45.5228 50 40V10C50 4.47715 45.5228 0 40 0Z" fill="#2CB1BC"/>
<path d="M26.004 9.5625H31.8633V29.25C31.8633 31.0599 31.4596 32.6615 30.6523 34.0547C29.8581 35.4349 28.7318 36.5026 27.2734 37.2578C25.8151 38.013 24.1681 38.3906 22.3321 38.3906C19.3243 38.3906 16.9805 37.6289 15.3008 36.1055C13.6211 34.569 12.7812 32.401 12.7812 29.6016H18.6798C18.6798 30.9948 18.9727 32.0234 19.5586 32.6875C20.1445 33.3516 21.0691 33.6836 22.3321 33.6836C23.4519 33.6836 24.3438 33.2995 25.0078 32.5312C25.6719 31.763 26.004 30.6693 26.004 29.25V9.5625Z" fill="white"/>
<ellipse cx="109" cy="30" rx="3" ry="4" fill="white"/>
<ellipse cx="128" cy="30" rx="3" ry="4" fill="white"/>
</svg>
